<svg width="10" height="12" viewBox="0 0 10 12" fill="none" xmlns="http://www.w3.org/2000/svg">
<path d="M4.43218 3.46237L1.68218 6.21237C1.22667 6.66802 0.970824 7.28595 0.970918 7.93023C0.971012 8.57451 1.22704 9.19236 1.68268 9.64787C2.13833 10.1034 2.75626 10.3592 3.40054 10.3591C4.04482 10.359 4.66267 10.103 5.11818 9.64737L8.55618 6.20937C8.64742 6.11827 8.7711 6.06714 8.90004 6.06724C9.02897 6.06733 9.15258 6.11864 9.24368 6.20987C9.33478 6.30111 9.38591 6.4248 9.38582 6.55373C9.38572 6.68266 9.33442 6.80627 9.24318 6.89737L5.80618 10.3344C5.16834 10.9722 4.30323 11.3306 3.40118 11.3306C2.49913 11.3306 1.63403 10.9722 0.996183 10.3344C0.358338 9.69653 0 8.83142 0 7.92937C0 7.02732 0.358338 6.16222 0.996183 5.52437L5.80718 0.712375C6.75818 -0.237625 8.29018 -0.237625 9.24218 0.713375C10.1922 1.66337 10.1952 3.19637 9.24218 4.14937L6.49218 6.89937L4.43418 8.95737C3.86418 9.52737 2.94218 9.53037 2.37118 8.95937C2.23489 8.82422 2.12675 8.66339 2.05302 8.48618C1.97928 8.30897 1.94141 8.1189 1.94159 7.92696C1.94178 7.73502 1.98002 7.54502 2.0541 7.36795C2.12818 7.19088 2.23663 7.03026 2.37318 6.89537L7.17918 2.09037C7.27118 2.00373 7.39331 1.95632 7.51967 1.95821C7.64603 1.9601 7.76669 2.01114 7.85605 2.1005C7.94542 2.18987 7.99645 2.31052 7.99834 2.43689C8.00024 2.56325 7.95283 2.68538 7.86618 2.77737L3.06018 7.58337C3.01394 7.62798 2.97712 7.68142 2.95191 7.74053C2.9267 7.79963 2.91361 7.8632 2.91343 7.92745C2.91324 7.99171 2.92596 8.05535 2.95082 8.11459C2.97569 8.17384 3.0122 8.2275 3.05818 8.27237C3.24818 8.46237 3.55518 8.46237 3.74718 8.27037L5.80518 6.21037L8.55518 3.46037C8.69088 3.32536 8.79856 3.16486 8.87204 2.9881C8.94551 2.81134 8.98334 2.6218 8.98334 2.43037C8.98334 2.23895 8.94551 2.04941 8.87204 1.87265C8.79856 1.69589 8.69088 1.53539 8.55518 1.40038C8.42015 1.26453 8.25958 1.15672 8.08273 1.08316C7.90588 1.00959 7.71623 0.971718 7.52468 0.971718C7.33314 0.971718 7.14349 1.00959 6.96663 1.08316C6.78978 1.15672 6.62922 1.26453 6.49418 1.40038L4.43218 3.46037V3.46237Z" fill="#006EF9"/>
</svg>
