<svg width="19" height="19" viewBox="0 0 19 19" fill="none" xmlns="http://www.w3.org/2000/svg">
<g filter="url(#filter0_f_656_9698)">
<ellipse cx="8" cy="13.73" rx="7" ry="3.5" fill="#9747FF" fill-opacity="0.15"/>
</g>
<path d="M16.7551 8.22998H9.24493C8.55718 8.22998 8 8.78554 8 9.47109V14.9889C8 15.6744 8.55718 16.23 9.24493 16.23H16.7551C17.4428 16.23 18 15.6742 18 14.9889V9.47109C18 8.78576 17.4428 8.22998 16.7551 8.22998ZM17.0909 10.5158C16.0025 10.5678 15.512 11.3078 15.0857 11.9513C14.7564 12.4478 14.4655 12.8869 13.967 12.9078C13.3043 12.9355 12.8037 12.6489 12.3514 12.3895C11.999 12.1878 11.6756 12.0024 11.3278 11.9958C10.7854 11.966 10.2169 12.2271 9.66117 12.4824C9.40662 12.5995 9.15466 12.7153 8.90907 12.8013V9.37287C8.90907 9.12643 8.96493 9.08709 9.21217 9.08709H16.7878C17.0351 9.08709 17.0909 9.12643 17.0909 9.37287V10.5158ZM10.7272 9.65865C10.6066 9.65682 10.4868 9.67763 10.3749 9.71988C10.2629 9.76212 10.1609 9.82496 10.075 9.90472C9.98899 9.98448 9.92071 10.0796 9.87411 10.1845C9.8275 10.2893 9.8035 10.4019 9.8035 10.5156C9.8035 10.6294 9.8275 10.7419 9.87411 10.8468C9.92071 10.9517 9.98899 11.0468 10.075 11.1266C10.1609 11.2063 10.2629 11.2692 10.3749 11.3114C10.4868 11.3537 10.6066 11.3745 10.7272 11.3726C10.9657 11.369 11.1932 11.2771 11.3605 11.1168C11.5279 10.9565 11.6216 10.7406 11.6216 10.5156C11.6216 10.2907 11.5279 10.0748 11.3605 9.91448C11.1932 9.75415 10.9657 9.66227 10.7272 9.65865Z" fill="#7C5CFF" fill-opacity="0.25"/>
<path d="M14.4457 1.22998H2.05411C0.919333 1.22998 0 2.2022 0 3.40192V13.058C0 14.2578 0.919333 15.23 2.05411 15.23H14.4457C15.5804 15.23 16.4998 14.2574 16.4998 13.058V3.40192C16.4998 2.20259 15.5804 1.22998 14.4457 1.22998ZM14.9998 5.23009C13.2039 5.32109 12.3947 6.61609 11.6912 7.74231C11.1479 8.61109 10.668 9.37954 9.8455 9.41609C8.75194 9.4647 7.92595 8.96304 7.17967 8.5092C6.59828 8.15609 6.06472 7.83176 5.49072 7.82009C4.59589 7.76798 3.65789 8.22492 2.74089 8.67176C2.32089 8.8767 1.90517 9.07931 1.49995 9.22981V3.23004C1.49995 2.79876 1.59211 2.72993 2.00006 2.72993H14.4997C14.9077 2.72993 14.9998 2.79876 14.9998 3.23004V5.23009ZM4.49983 3.73015C4.30085 3.72694 4.10322 3.76337 3.91846 3.8373C3.73369 3.91123 3.56548 4.02119 3.42364 4.16077C3.28179 4.30035 3.16913 4.46677 3.09224 4.65032C3.01534 4.83387 2.97574 5.03089 2.97574 5.2299C2.97574 5.4289 3.01534 5.62592 3.09224 5.80947C3.16913 5.99303 3.28179 6.15944 3.42364 6.29902C3.56548 6.4386 3.73369 6.54856 3.91846 6.6225C4.10322 6.69643 4.30085 6.73285 4.49983 6.72965C4.89341 6.72331 5.26872 6.56251 5.54481 6.28195C5.82089 6.00138 5.97563 5.62352 5.97563 5.2299C5.97563 4.83627 5.82089 4.45842 5.54481 4.17785C5.26872 3.89728 4.89341 3.73649 4.49983 3.73015Z" fill="#7C5CFF"/>
<defs>
<filter id="filter0_f_656_9698" x="0" y="9.22998" width="16" height="9" filterUnits="userSpaceOnUse" color-interpolation-filters="sRGB">
<feFlood flood-opacity="0" result="BackgroundImageFix"/>
<feBlend mode="normal" in="SourceGraphic" in2="BackgroundImageFix" result="shape"/>
<feGaussianBlur stdDeviation="0.5" result="effect1_foregroundBlur_656_9698"/>
</filter>
</defs>
</svg>
