<svg width="21" height="21" viewBox="0 0 21 21" fill="none" xmlns="http://www.w3.org/2000/svg">
<g clip-path="url(#clip0_656_9688)">
<g filter="url(#filter0_d_656_9688)">
<path d="M10.2381 9.01221H18.6233C19.5211 9.01221 19.958 9.45513 19.958 10.3407V15.6548C19.958 16.5406 19.5493 16.9593 18.6726 16.9593H17.3873L17.5456 18.3121C17.5451 18.3924 17.523 18.4711 17.4815 18.5398C17.44 18.6085 17.3806 18.6647 17.3098 18.7025C17.2389 18.7402 17.1592 18.7581 17.079 18.7543C16.9988 18.7504 16.9211 18.7249 16.8542 18.6805L14.3025 16.9593H10.1888C9.29911 16.9593 8.90332 16.5406 8.90332 15.6548V10.3407C8.90332 9.45505 9.34824 9.01221 10.2381 9.01221Z" fill="#BFE4D4"/>
</g>
<g filter="url(#filter1_d_656_9688)">
<path d="M16.044 1.44262H2.41084C0.950789 1.44262 0.240723 2.16255 0.240723 3.60288V12.2434C0.240723 13.6838 0.907026 14.3642 2.33053 14.3642H4.42057L4.16376 16.5637C4.1644 16.6943 4.20037 16.8223 4.26785 16.9341C4.33532 17.0459 4.4318 17.1373 4.54705 17.1987C4.66229 17.2601 4.79201 17.2892 4.92244 17.2828C5.05287 17.2765 5.17915 17.235 5.28789 17.1627L9.43648 14.3633H16.1243C17.5714 14.3633 18.2141 13.6826 18.2141 12.2425V3.60264C18.2141 2.16247 17.4907 1.44238 16.044 1.44238V1.44262ZM5.05201 8.94846C4.84582 8.94836 4.6443 8.88712 4.47293 8.77248C4.30155 8.65785 4.16802 8.49496 4.08923 8.30443C4.01044 8.11389 3.98992 7.90427 4.03027 7.70207C4.07062 7.49988 4.17003 7.31419 4.31593 7.1685C4.46182 7.02281 4.64765 6.92365 4.8499 6.88358C5.05215 6.84351 5.26174 6.86432 5.45217 6.94337C5.64259 7.02243 5.80529 7.15618 5.91969 7.32772C6.0341 7.49925 6.09506 7.70086 6.09487 7.90704C6.09429 8.18332 5.98419 8.44809 5.7887 8.64331C5.59321 8.83853 5.32828 8.94827 5.05201 8.94846ZM9.22512 8.94846C9.01917 8.94732 8.81817 8.88519 8.64749 8.76992C8.47681 8.65465 8.34411 8.4914 8.26612 8.30078C8.18814 8.11015 8.16838 7.9007 8.20933 7.69885C8.25027 7.49701 8.3501 7.31182 8.4962 7.16665C8.6423 7.02149 8.82813 6.92286 9.03024 6.88321C9.23234 6.84357 9.44166 6.86468 9.63178 6.94389C9.8219 7.0231 9.98429 7.15685 10.0985 7.32827C10.2126 7.49969 10.2735 7.70109 10.2733 7.90704C10.2721 8.18404 10.161 8.44924 9.96453 8.64448C9.76803 8.83971 9.50212 8.94903 9.22512 8.94846ZM13.4047 8.94846C13.1988 8.94736 12.9977 8.88528 12.827 8.77004C12.6563 8.65479 12.5236 8.49156 12.4456 8.30094C12.3675 8.11032 12.3477 7.90086 12.3887 7.699C12.4296 7.49714 12.5294 7.31192 12.6755 7.16674C12.8216 7.02155 13.0074 6.9229 13.2095 6.88323C13.4116 6.84357 13.621 6.86467 13.8111 6.94387C14.0012 7.02307 14.1636 7.15682 14.2778 7.32825C14.392 7.49967 14.4528 7.70108 14.4526 7.90704C14.4517 8.18409 14.3408 8.44945 14.1443 8.64474C13.9478 8.84004 13.6818 8.94929 13.4047 8.94846Z" fill="#00A996"/>
</g>
</g>
<defs>
<filter id="filter0_d_656_9688" x="4.90332" y="6.01221" width="19.0547" height="17.7427" filterUnits="userSpaceOnUse" color-interpolation-filters="sRGB">
<feFlood flood-opacity="0" result="BackgroundImageFix"/>
<feColorMatrix in="SourceAlpha" type="matrix" values="0 0 0 0 0 0 0 0 0 0 0 0 0 0 0 0 0 0 127 0" result="hardAlpha"/>
<feOffset dy="1"/>
<feGaussianBlur stdDeviation="2"/>
<feComposite in2="hardAlpha" operator="out"/>
<feColorMatrix type="matrix" values="0 0 0 0 0.188235 0 0 0 0 0.431373 0 0 0 0 1 0 0 0 0.11 0"/>
<feBlend mode="normal" in2="BackgroundImageFix" result="effect1_dropShadow_656_9688"/>
<feBlend mode="normal" in="SourceGraphic" in2="effect1_dropShadow_656_9688" result="shape"/>
</filter>
<filter id="filter1_d_656_9688" x="-3.75928" y="-0.557617" width="25.9731" height="23.8413" filterUnits="userSpaceOnUse" color-interpolation-filters="sRGB">
<feFlood flood-opacity="0" result="BackgroundImageFix"/>
<feColorMatrix in="SourceAlpha" type="matrix" values="0 0 0 0 0 0 0 0 0 0 0 0 0 0 0 0 0 0 127 0" result="hardAlpha"/>
<feOffset dy="2"/>
<feGaussianBlur stdDeviation="2"/>
<feComposite in2="hardAlpha" operator="out"/>
<feColorMatrix type="matrix" values="0 0 0 0 0.188235 0 0 0 0 0.431373 0 0 0 0 1 0 0 0 0.17 0"/>
<feBlend mode="normal" in2="BackgroundImageFix" result="effect1_dropShadow_656_9688"/>
<feBlend mode="normal" in="SourceGraphic" in2="effect1_dropShadow_656_9688" result="shape"/>
</filter>
<clipPath id="clip0_656_9688">
<rect width="20.1983" height="20.1983" fill="white"/>
</clipPath>
</defs>
</svg>
