<svg width="24" height="22" viewBox="0 0 24 22" fill="none" xmlns="http://www.w3.org/2000/svg">
<path d="M18.8228 5.90575L22.8303 4.02561C23.1619 3.87006 23.5427 4.11202 23.5427 4.47827V14.4865C23.5427 14.8416 23.183 15.0835 22.8542 14.9496L18.8467 13.3186C18.6583 13.2419 18.5352 13.0588 18.5352 12.8554V6.35841C18.5352 6.16452 18.6473 5.9881 18.8228 5.90575Z" fill="#B2D4FD"/>
<g filter="url(#filter0_d_656_9673)">
<path d="M18.023 2.63672H5.46472C4.65953 2.63672 4 3.28929 4 4.08797V14.2494C4 15.0481 4.65953 15.7007 5.46472 15.7007L18.023 15.7007C18.8291 15.7007 19.4877 15.0472 19.4877 14.2494V4.08797C19.4886 3.28929 18.8291 2.63672 18.023 2.63672ZM7.91738 7.58927C7.18909 7.58927 6.59922 7.00392 6.59922 6.28323C6.59922 5.56164 7.19 4.97719 7.91738 4.97719C8.64567 4.97719 9.23554 5.56253 9.23554 6.28323C9.23554 7.00392 8.64567 7.58927 7.91738 7.58927Z" fill="#006EF9"/>
</g>
<defs>
<filter id="filter0_d_656_9673" x="0" y="0.636719" width="23.4878" height="21.064" filterUnits="userSpaceOnUse" color-interpolation-filters="sRGB">
<feFlood flood-opacity="0" result="BackgroundImageFix"/>
<feColorMatrix in="SourceAlpha" type="matrix" values="0 0 0 0 0 0 0 0 0 0 0 0 0 0 0 0 0 0 127 0" result="hardAlpha"/>
<feOffset dy="2"/>
<feGaussianBlur stdDeviation="2"/>
<feComposite in2="hardAlpha" operator="out"/>
<feColorMatrix type="matrix" values="0 0 0 0 0 0 0 0 0 0.433333 0 0 0 0 1 0 0 0 0.15 0"/>
<feBlend mode="normal" in2="BackgroundImageFix" result="effect1_dropShadow_656_9673"/>
<feBlend mode="normal" in="SourceGraphic" in2="effect1_dropShadow_656_9673" result="shape"/>
</filter>
</defs>
</svg>
