<svg preserveAspectRatio="none" width="100%" height="100%" overflow="visible" style="display: block;" viewBox="0 0 16 16" fill="none" xmlns="http://www.w3.org/2000/svg">
<g id="Clipboard">
<path id="Icon" d="M10.666 2.66667H11.9993C12.353 2.66667 12.6921 2.80714 12.9422 3.05719C13.1922 3.30724 13.3327 3.64638 13.3327 4V13.3333C13.3327 13.687 13.1922 14.0261 12.9422 14.2761C12.6921 14.5262 12.353 14.6667 11.9993 14.6667H3.99935C3.64573 14.6667 3.30659 14.5262 3.05654 14.2761C2.80649 14.0261 2.66602 13.687 2.66602 13.3333V4C2.66602 3.64638 2.80649 3.30724 3.05654 3.05719C3.30659 2.80714 3.64573 2.66667 3.99935 2.66667H5.33268M5.99935 1.33334H9.99935C10.3675 1.33334 10.666 1.63181 10.666 2V3.33334C10.666 3.70153 10.3675 4 9.99935 4H5.99935C5.63116 4 5.33268 3.70153 5.33268 3.33334V2C5.33268 1.63181 5.63116 1.33334 5.99935 1.33334Z" stroke="var(--stroke-0, black)" stroke-opacity="0.6" stroke-width="1.4" stroke-linecap="round" stroke-linejoin="round"/>
</g>
</svg>
