<svg preserveAspectRatio="none" width="100%" height="100%" overflow="visible" style="display: block;" viewBox="0 0 88 88" fill="none" xmlns="http://www.w3.org/2000/svg">
<g id="Frame">
<path id="Vector" d="M24.884 9.48856C23.4014 9.48856 22.2002 10.6898 22.2002 12.1723V14.8561C22.2002 16.3387 23.4015 17.5399 24.884 17.5399C26.3666 17.5399 27.5678 16.3386 27.5678 14.8561V12.1723C27.5678 10.6898 26.3666 9.48856 24.884 9.48856Z" fill="var(--fill-0, white)"/>
<path id="Vector_2" d="M40.9866 9.48856C39.5041 9.48856 38.3029 10.6898 38.3029 12.1723V14.8561C38.3029 16.3387 39.5041 17.5399 40.9866 17.5399C42.4692 17.5399 43.6704 16.3386 43.6704 14.8561V12.1723C43.6705 10.6898 42.4692 9.48856 40.9866 9.48856Z" fill="var(--fill-0, white)"/>
<path id="Vector_3" d="M82.5059 36.7336C82.5059 31.1223 77.9797 26.5575 72.4164 26.5575C66.8531 26.5575 62.3268 31.1223 62.3268 36.7336C62.3268 41.3497 65.3934 45.2515 69.5779 46.4919V66.6643C69.5779 70.2864 67.1405 73.3459 64.2558 73.3459H41.3448C39.2716 73.3459 37.354 71.9201 36.6813 69.8784C36.0134 67.8505 35.9573 64.654 35.9824 62.5582H46.2737C52.1481 62.5582 56.8158 58.0284 58.1665 51.0175C58.1814 50.938 58.1927 50.8577 58.2014 50.7773L60.914 23.6842C60.9227 23.5951 60.9271 23.5059 60.9271 23.4168C60.9271 16.5483 56.1746 11.3686 49.8714 11.3686C48.3888 11.3686 47.1876 12.5698 47.1876 14.0523C47.1876 15.5348 48.3889 16.7361 49.8714 16.7361C53.7293 16.7361 55.5133 20.1101 55.5587 23.2919L52.8732 50.1159C52.2084 53.4061 50.096 57.1906 46.2738 57.1906H20.2238C16.6201 57.1906 14.1443 53.5895 13.6305 50.1797L10.9388 23.292C10.9843 20.1102 12.7683 16.7362 16.6262 16.7362C18.1088 16.7362 19.31 15.5349 19.31 14.0524C19.31 12.5699 18.1087 11.3686 16.6262 11.3686C10.323 11.3686 5.57043 16.5484 5.57043 23.4169C5.57043 23.506 5.57483 23.5952 5.58354 23.6843L8.29527 50.7774C8.29966 50.8167 8.30397 50.856 8.31013 50.8944C9.14969 56.691 13.5117 62.5583 20.2238 62.5583H30.6141C30.5837 65.042 30.663 68.7628 31.5828 71.5576C32.9937 75.8375 36.9163 78.7135 41.3448 78.7135H64.2558C70.1502 78.7135 74.9455 73.3083 74.9455 66.6643V46.5722C79.2865 45.4358 82.5059 41.4619 82.5059 36.7336ZM72.4164 41.5413C69.813 41.5413 67.6944 39.3843 67.6944 36.7336C67.6944 34.0822 69.813 31.9252 72.4164 31.9252C75.0198 31.9252 77.1383 34.0822 77.1383 36.7336C77.1383 39.3843 75.0198 41.5413 72.4164 41.5413Z" fill="var(--fill-0, white)"/>
<path id="Vector_4" d="M30.2513 47.063V51.536C30.2513 53.0185 31.4526 54.2197 32.9351 54.2197C34.4177 54.2197 35.6189 53.0185 35.6189 51.536V47.063C35.6189 45.5804 34.4176 44.3792 32.9351 44.3792C31.4525 44.3792 30.2513 45.5805 30.2513 47.063Z" fill="var(--fill-0, white)"/>
<path id="Vector_5" d="M25.5059 25.004C26.4691 26.5547 29.1126 29.179 32.9086 29.179C36.6862 29.179 39.3621 26.5748 40.348 25.0354C41.1403 23.7983 40.7805 22.169 39.5539 21.3618C38.3277 20.5537 36.6687 20.897 35.8454 22.1139C35.834 22.1305 34.6756 23.8113 32.9087 23.8113C31.1907 23.8113 30.1222 22.2554 30.0502 22.1471C29.2617 20.9074 27.6198 20.5299 26.3696 21.3084C25.11 22.0904 24.7235 23.7451 25.5059 25.004Z" fill="var(--fill-0, white)"/>
</g>
</svg>
