<svg preserveAspectRatio="none" width="100%" height="100%" overflow="visible" style="display: block;" viewBox="0 0 16 16" fill="none" xmlns="http://www.w3.org/2000/svg">
<g id="Pocket">
<path id="Icon" d="M5.33398 6.66667L8.00065 9.33333L10.6673 6.66667M2.66732 2H13.334C13.6876 2 14.0267 2.14048 14.2768 2.39052C14.5268 2.64057 14.6673 2.97971 14.6673 3.33333V7.33333C14.6673 9.10144 13.9649 10.7971 12.7147 12.0474C11.4645 13.2976 9.76876 14 8.00065 14C7.12517 14 6.25827 13.8276 5.44943 13.4925C4.64059 13.1575 3.90566 12.6664 3.28661 12.0474C2.03636 10.7971 1.33398 9.10144 1.33398 7.33333V3.33333C1.33398 2.97971 1.47446 2.64057 1.72451 2.39052C1.97456 2.14048 2.3137 2 2.66732 2Z" stroke="var(--stroke-0, black)" stroke-opacity="0.6" stroke-width="1.4" stroke-linecap="round" stroke-linejoin="round"/>
</g>
</svg>
